<?xml version="1.0" encoding="UTF-8"?>
<svg xmlns="http://www.w3.org/2000/svg" version="1.2" baseProfile="tiny-ps" viewBox="0 0 500 500">
 <title>Vaulto</title>
 <rect x="0" y="0" width="500" height="500" fill="#FFFFFF"/>
 <g transform="translate(0,500) scale(0.1,-0.1)">
  <path fill="#BB133E" d="M1332 3557 c-56 -56 -102 -107 -102 -113 0 -7 -7 -17 -16 -24 -29
-25 -154 -221 -195 -308 -170 -355 -200 -764 -82 -1135 145 -459 492 -823 943
-990 408 -151 860 -121 1249 84 151 79 271 168 404 298 l107 106 -1092 1092
c-601 601 -1098 1093 -1103 1093 -6 0 -56 -46 -113 -103z m943 -1137 c363
-353 709 -692 770 -751 l109 -109 -34 -36 c-89 -94 -276 -206 -420 -252 -97
-32 -144 -41 -260 -52 -569 -54 -1092 336 -1216 905 -73 332 30 727 253 976
l46 50 46 -44 c25 -24 343 -333 706 -687z"/>
  <path fill="#14044D" d="M1690 3817 c198 -199 2205 -2136 2207 -2130 2 7 -84 2126 -86 2129
-1 1 -373 4 -828 8 -456 3 -938 9 -1073 12 l-245 6 25 -25z m1804 -327 c6 -6
49 -1026 44 -1040 -3 -8 -764 723 -1013 971 l-80 80 522 -3 c287 -2 524 -5
527 -8z"/>
 </g>
</svg>
